<?xml version="1.0" standalone="no"?><!DOCTYPE svg PUBLIC "-//W3C//DTD SVG 1.1//EN" "http://www.w3.org/Graphics/SVG/1.1/DTD/svg11.dtd"><svg class="icon" height="512" viewBox="0 0 1024 1024" version="1.1" xmlns="http://www.w3.org/2000/svg"><path d="M699.9 477.5H324.1c-17.3 0-31.3 14-31.3 31.3s14 31.3 31.3 31.3H700c17.3 0 31.3-14 31.3-31.3-0.1-17.3-14.1-31.3-31.4-31.3z m0 169.5H324.1c-17.3 0-31.3 14-31.3 31.3s14 31.3 31.3 31.3H700c17.3 0 31.3-14 31.3-31.3-0.1-17.3-14.1-31.3-31.4-31.3z m189.3-462.9H773.6v-24.7c0-17.3-14-31.3-31.3-31.3s-31.3 14-31.3 31.3v24.7H313v-24.7c0-17.3-14-31.3-31.3-31.3s-31.3 14-31.3 31.3v24.7H134.8c-39.8 0-72 32.2-72 72v568c0 39.8 32.2 72 72 72h754.5c39.8 0 72-32.2 72-72v-568c-0.1-39.7-32.3-72-72.1-72z m-754.4 72h115.7v16.2c0 17.3 14 31.3 31.3 31.3s31.3-14 31.3-31.3v-16.2h398v16.2c0 17.3 14 31.3 31.3 31.3s31.3-14 31.3-31.3v-16.2h115.7v98.1H134.8v-98.1z m0 568V416.5h754.5v407.6H134.8z" /></svg>